<svg xmlns="http://www.w3.org/2000/svg" width="880" height="318" viewBox="0 0 880 318" role="img" aria-label="Map of BFME 2&#x27;s code by folder">
  <style>
    .card { fill: #0d1117; stroke: #30363d; } .muted { fill: #8b949e; } .grid { stroke: #30363d; }
    .axis { fill: #8b949e; font-size: 12px; } .rest { fill: #30363d; } .edge { stroke: #0d1117; }
    .hit { fill: transparent; }
    @media (prefers-color-scheme: light) {
      .card { fill: #ffffff; stroke: #d0d7de; } .muted { fill: #59636e; } .grid { stroke: #d0d7de; }
      .axis { fill: #59636e; } .rest { fill: #d0d7de; } .edge { stroke: #ffffff; }
    }
  </style>
  <defs><pattern id="dots" width="5" height="5" patternUnits="userSpaceOnUse"><rect width="5" height="5" fill="#56d364"/><circle cx="2.5" cy="2.5" r="1.1" fill="#196c2e"/></pattern></defs>
  <rect class="card" x="0.5" y="0.5" width="879" height="317" rx="12"/>
  <g font-family="-apple-system,BlinkMacSystemFont,'Segoe UI','Noto Sans',Helvetica,Arial,sans-serif">
    <text x="28" y="29" class="muted" font-size="13" font-weight="600" letter-spacing="1.3">BFME 2 · MAP</text>
    <rect x="150" y="20" width="10" height="10" rx="2" fill="url(#dots)"/><text x="166" y="29" class="muted" font-size="12.5">linked</text><rect x="222" y="20" width="10" height="10" rx="2" fill="#2ea043"/><text x="238" y="29" class="muted" font-size="12.5">byte-matched: our own source</text><rect x="420" y="20" width="10" height="10" rx="2" fill="#196c2e"/><text x="436" y="29" class="muted" font-size="12.5">generated code, Microsoft libraries</text><rect x="660" y="20" width="10" height="10" rx="2" fill="#6e7681"/><text x="676" y="29" class="muted" font-size="12.5">still original</text>
    <g><title>unclaimed
5,148,892 bytes
byte-matched 0.0% (own source 0.0%)
linked (last census) 0.0%</title><clipPath id="t0"><rect x="28.0" y="44.0" width="531.8" height="254.7"/></clipPath><g clip-path="url(#t0)"><rect class="rest" x="28.0" y="44.0" width="531.8" height="254.7"/>
<text x="32.0" y="58.5" font-size="11.0" fill="#ffffff" style="paint-order:stroke" stroke="#0008" stroke-width="2">Unclaimed</text>
</g><rect class="edge" x="28.0" y="44.0" width="531.8" height="254.7" fill="none"/></g>
    <g><title>Code/GameEngine/Source/Common
445,870 bytes
byte-matched 100.0% (own source 100.0%)
linked (last census) 60.3%</title><clipPath id="t1"><rect x="559.8" y="44.0" width="86.7" height="135.3"/></clipPath><g clip-path="url(#t1)"><rect class="rest" x="559.8" y="44.0" width="86.7" height="135.3"/>
<rect x="559.8" y="44.0" width="86.7" height="135.3" fill="#196c2e"/>
<rect x="559.8" y="44.0" width="86.7" height="135.3" fill="#2ea043"/>
<rect x="559.8" y="44.0" width="52.3" height="135.3" fill="url(#dots)"/>
<text x="563.8" y="58.5" font-size="11.0" fill="#ffffff" style="paint-order:stroke" stroke="#0008" stroke-width="2">Common</text>
</g><rect class="edge" x="559.8" y="44.0" width="86.7" height="135.3" fill="none"/></g>
    <g><title>Code/Libraries/Source/WWVegas/WWLib
393,435 bytes
byte-matched 100.0% (own source 96.9%)
linked (last census) 67.5%</title><clipPath id="t2"><rect x="559.8" y="179.3" width="86.7" height="119.4"/></clipPath><g clip-path="url(#t2)"><rect class="rest" x="559.8" y="179.3" width="86.7" height="119.4"/>
<rect x="559.8" y="179.3" width="86.7" height="119.4" fill="#196c2e"/>
<rect x="559.8" y="179.3" width="84.0" height="119.4" fill="#2ea043"/>
<rect x="559.8" y="179.3" width="58.5" height="119.4" fill="url(#dots)"/>
<text x="563.8" y="193.9" font-size="11.0" fill="#ffffff" style="paint-order:stroke" stroke="#0008" stroke-width="2">WWLib</text>
</g><rect class="edge" x="559.8" y="179.3" width="86.7" height="119.4" fill="none"/></g>
    <g><title>Code/Libraries/Source/WWVegas/WW3D2
311,736 bytes
byte-matched 100.0% (own source 99.1%)
linked (last census) 19.6%</title><clipPath id="t3"><rect x="646.4" y="44.0" width="88.9" height="92.3"/></clipPath><g clip-path="url(#t3)"><rect class="rest" x="646.4" y="44.0" width="88.9" height="92.3"/>
<rect x="646.4" y="44.0" width="88.9" height="92.3" fill="#196c2e"/>
<rect x="646.4" y="44.0" width="88.0" height="92.3" fill="#2ea043"/>
<rect x="646.4" y="44.0" width="17.4" height="92.3" fill="url(#dots)"/>
<text x="650.4" y="58.5" font-size="11.0" fill="#ffffff" style="paint-order:stroke" stroke="#0008" stroke-width="2">WW3D2</text>
</g><rect class="edge" x="646.4" y="44.0" width="88.9" height="92.3" fill="none"/></g>
    <g><title>Code/GameEngine/Source/GameLogic/Object
208,229 bytes
byte-matched 100.0% (own source 99.7%)
linked (last census) 43.9%</title><clipPath id="t4"><rect x="735.3" y="44.0" width="59.4" height="92.3"/></clipPath><g clip-path="url(#t4)"><rect class="rest" x="735.3" y="44.0" width="59.4" height="92.3"/>
<rect x="735.3" y="44.0" width="59.4" height="92.3" fill="#196c2e"/>
<rect x="735.3" y="44.0" width="59.2" height="92.3" fill="#2ea043"/>
<rect x="735.3" y="44.0" width="26.0" height="92.3" fill="url(#dots)"/>
<text x="739.3" y="56.5" font-size="9.0" fill="#ffffff" style="paint-order:stroke" stroke="#0008" stroke-width="2">Object</text>
</g><rect class="edge" x="735.3" y="44.0" width="59.4" height="92.3" fill="none"/></g>
    <g><title>Code/GameEngine/Source/GameNetwork/GameSpy
200,996 bytes
byte-matched 100.0% (own source 99.7%)
linked (last census) 87.4%</title><clipPath id="t5"><rect x="794.7" y="44.0" width="57.3" height="92.3"/></clipPath><g clip-path="url(#t5)"><rect class="rest" x="794.7" y="44.0" width="57.3" height="92.3"/>
<rect x="794.7" y="44.0" width="57.3" height="92.3" fill="#196c2e"/>
<rect x="794.7" y="44.0" width="57.1" height="92.3" fill="#2ea043"/>
<rect x="794.7" y="44.0" width="50.1" height="92.3" fill="url(#dots)"/>
<text x="798.7" y="56.5" font-size="9.0" fill="#ffffff" style="paint-order:stroke" stroke="#0008" stroke-width="2">GameSpy</text>
</g><rect class="edge" x="794.7" y="44.0" width="57.3" height="92.3" fill="none"/></g>
    <g><title>Libraries: 29 smaller folders
182,045 bytes
byte-matched 100.0% (own source 95.0%)
linked (last census) 45.5%</title><clipPath id="t6"><rect x="646.4" y="136.3" width="56.8" height="84.3"/></clipPath><g clip-path="url(#t6)"><rect class="rest" x="646.4" y="136.3" width="56.8" height="84.3"/>
<rect x="646.4" y="136.3" width="56.8" height="84.3" fill="#196c2e"/>
<rect x="646.4" y="136.3" width="53.9" height="84.3" fill="#2ea043"/>
<rect x="646.4" y="136.3" width="25.9" height="84.3" fill="url(#dots)"/>
<text x="650.4" y="148.7" font-size="9.0" fill="#ffffff" style="paint-order:stroke" stroke="#0008" stroke-width="2">Libraries:</text>
<text x="650.4" y="160.4" font-size="9.0" fill="#ffffff" style="paint-order:stroke" stroke="#0008" stroke-width="2">29</text>
<text x="650.4" y="172.1" font-size="9.0" fill="#ffffff" style="paint-order:stroke" stroke="#0008" stroke-width="2">smaller</text>
<text x="650.4" y="183.8" font-size="9.0" fill="#ffffff" style="paint-order:stroke" stroke="#0008" stroke-width="2">folders</text>
</g><rect class="edge" x="646.4" y="136.3" width="56.8" height="84.3" fill="none"/></g>
    <g><title>vendor/dxerr9-aug2005
168,667 bytes
byte-matched 100.0% (own source 0.0%)
linked (last census) 0.0%</title><clipPath id="t7"><rect x="646.4" y="220.6" width="56.8" height="78.1"/></clipPath><g clip-path="url(#t7)"><rect class="rest" x="646.4" y="220.6" width="56.8" height="78.1"/>
<rect x="646.4" y="220.6" width="56.8" height="78.1" fill="#196c2e"/>
<text x="650.4" y="233.0" font-size="9.0" fill="#ffffff" style="paint-order:stroke" stroke="#0008" stroke-width="2">dxerr9</text>
<text x="650.4" y="244.7" font-size="9.0" fill="#ffffff" style="paint-order:stroke" stroke="#0008" stroke-width="2">(Microsoft)</text>
</g><rect class="edge" x="646.4" y="220.6" width="56.8" height="78.1" fill="none"/></g>
    <g><title>Code/gen_small
144,269 bytes
byte-matched 100.0% (own source 0.0%)
linked (last census) 0.0%</title><clipPath id="t8"><rect x="703.2" y="136.3" width="58.5" height="64.9"/></clipPath><g clip-path="url(#t8)"><rect class="rest" x="703.2" y="136.3" width="58.5" height="64.9"/>
<rect x="703.2" y="136.3" width="58.5" height="64.9" fill="#196c2e"/>
<text x="707.2" y="148.7" font-size="9.0" fill="#ffffff" style="paint-order:stroke" stroke="#0008" stroke-width="2">Generated</text>
<text x="707.2" y="160.4" font-size="9.0" fill="#ffffff" style="paint-order:stroke" stroke="#0008" stroke-width="2">C++</text>
</g><rect class="edge" x="703.2" y="136.3" width="58.5" height="64.9" fill="none"/></g>
    <g><title>Code/Libraries/Source/WWVegas/WWMath
117,930 bytes
byte-matched 100.0% (own source 99.4%)
linked (last census) 82.6%</title><clipPath id="t9"><rect x="761.7" y="136.3" width="47.8" height="64.9"/></clipPath><g clip-path="url(#t9)"><rect class="rest" x="761.7" y="136.3" width="47.8" height="64.9"/>
<rect x="761.7" y="136.3" width="47.8" height="64.9" fill="#196c2e"/>
<rect x="761.7" y="136.3" width="47.6" height="64.9" fill="#2ea043"/>
<rect x="761.7" y="136.3" width="39.5" height="64.9" fill="url(#dots)"/>
<text x="765.7" y="148.7" font-size="9.0" fill="#ffffff" style="paint-order:stroke" stroke="#0008" stroke-width="2">WWMath</text>
</g><rect class="edge" x="761.7" y="136.3" width="47.8" height="64.9" fill="none"/></g>
    <g><title>Code/GameEngine/Source/GameLogic/ScriptEngine
104,649 bytes
byte-matched 100.0% (own source 100.0%)
linked (last census) 86.2%</title><clipPath id="t10"><rect x="809.6" y="136.3" width="42.4" height="64.9"/></clipPath><g clip-path="url(#t10)"><rect class="rest" x="809.6" y="136.3" width="42.4" height="64.9"/>
<rect x="809.6" y="136.3" width="42.4" height="64.9" fill="#196c2e"/>
<rect x="809.6" y="136.3" width="42.4" height="64.9" fill="#2ea043"/>
<rect x="809.6" y="136.3" width="36.6" height="64.9" fill="url(#dots)"/>
<text x="813.6" y="146.6" font-size="7.0" fill="#ffffff" style="paint-order:stroke" stroke="#0008" stroke-width="2">ScriptEngine</text>
</g><rect class="edge" x="809.6" y="136.3" width="42.4" height="64.9" fill="none"/></g>
    <g><title>Code/Libraries/Source/DirtySock
102,539 bytes
byte-matched 100.0% (own source 98.5%)
linked (last census) 20.4%</title><clipPath id="t11"><rect x="703.2" y="201.1" width="50.2" height="53.7"/></clipPath><g clip-path="url(#t11)"><rect class="rest" x="703.2" y="201.1" width="50.2" height="53.7"/>
<rect x="703.2" y="201.1" width="50.2" height="53.7" fill="#196c2e"/>
<rect x="703.2" y="201.1" width="49.4" height="53.7" fill="#2ea043"/>
<rect x="703.2" y="201.1" width="10.2" height="53.7" fill="url(#dots)"/>
<text x="707.2" y="212.9" font-size="8.4" fill="#ffffff" style="paint-order:stroke" stroke="#0008" stroke-width="2">DirtySock</text>
</g><rect class="edge" x="703.2" y="201.1" width="50.2" height="53.7" fill="none"/></g>
    <g><title>Game engine: 19 smaller folders
83,642 bytes
byte-matched 100.0% (own source 98.4%)
linked (last census) 43.0%</title><clipPath id="t12"><rect x="703.2" y="254.9" width="50.2" height="43.8"/></clipPath><g clip-path="url(#t12)"><rect class="rest" x="703.2" y="254.9" width="50.2" height="43.8"/>
<rect x="703.2" y="254.9" width="50.2" height="43.8" fill="#196c2e"/>
<rect x="703.2" y="254.9" width="49.4" height="43.8" fill="#2ea043"/>
<rect x="703.2" y="254.9" width="21.6" height="43.8" fill="url(#dots)"/>
<text x="707.2" y="267.3" font-size="9.0" fill="#ffffff" style="paint-order:stroke" stroke="#0008" stroke-width="2">Game</text>
<text x="707.2" y="279.0" font-size="9.0" fill="#ffffff" style="paint-order:stroke" stroke="#0008" stroke-width="2">engine:</text>
<text x="707.2" y="290.7" font-size="9.0" fill="#ffffff" style="paint-order:stroke" stroke="#0008" stroke-width="2">1…</text>
</g><rect class="edge" x="703.2" y="254.9" width="50.2" height="43.8" fill="none"/></g>
    <g><title>Code/GameEngine/Source/GameNetwork
71,803 bytes
byte-matched 100.0% (own source 99.9%)
linked (last census) 52.2%</title><clipPath id="t13"><rect x="753.4" y="201.1" width="37.5" height="50.3"/></clipPath><g clip-path="url(#t13)"><rect class="rest" x="753.4" y="201.1" width="37.5" height="50.3"/>
<rect x="753.4" y="201.1" width="37.5" height="50.3" fill="#196c2e"/>
<rect x="753.4" y="201.1" width="37.5" height="50.3" fill="#2ea043"/>
<rect x="753.4" y="201.1" width="19.6" height="50.3" fill="url(#dots)"/>
<text x="757.4" y="211.5" font-size="7.0" fill="#ffffff" style="paint-order:stroke" stroke="#0008" stroke-width="2">GameNetwork</text>
</g><rect class="edge" x="753.4" y="201.1" width="37.5" height="50.3" fill="none"/></g>
    <g><title>Code/GameEngineDevice/Source/W3DDevice/GameClient
67,455 bytes
byte-matched 100.0% (own source 99.9%)
linked (last census) 23.5%</title><clipPath id="t14"><rect x="753.4" y="251.4" width="37.5" height="47.3"/></clipPath><g clip-path="url(#t14)"><rect class="rest" x="753.4" y="251.4" width="37.5" height="47.3"/>
<rect x="753.4" y="251.4" width="37.5" height="47.3" fill="#196c2e"/>
<rect x="753.4" y="251.4" width="37.5" height="47.3" fill="#2ea043"/>
<rect x="753.4" y="251.4" width="8.8" height="47.3" fill="url(#dots)"/>
<text x="757.4" y="261.8" font-size="7.0" fill="#ffffff" style="paint-order:stroke" stroke="#0008" stroke-width="2">GameClient</text>
</g><rect class="edge" x="753.4" y="251.4" width="37.5" height="47.3" fill="none"/></g>
    <g><title>Code/Libraries/Source/Lua
65,427 bytes
byte-matched 100.0% (own source 95.5%)
linked (last census) 94.6%</title><clipPath id="t15"><rect x="791.0" y="201.1" width="31.8" height="54.1"/></clipPath><g clip-path="url(#t15)"><rect class="rest" x="791.0" y="201.1" width="31.8" height="54.1"/>
<rect x="791.0" y="201.1" width="31.8" height="54.1" fill="#196c2e"/>
<rect x="791.0" y="201.1" width="30.4" height="54.1" fill="#2ea043"/>
<rect x="791.0" y="201.1" width="30.1" height="54.1" fill="url(#dots)"/>
<text x="795.0" y="213.6" font-size="9.0" fill="#ffffff" style="paint-order:stroke" stroke="#0008" stroke-width="2">Lua</text>
</g><rect class="edge" x="791.0" y="201.1" width="31.8" height="54.1" fill="none"/></g>
    <g><title>Code/GameEngine/Source/Common/System
60,040 bytes
byte-matched 100.0% (own source 99.5%)
linked (last census) 56.1%</title><clipPath id="t16"><rect x="822.8" y="201.1" width="29.2" height="54.1"/></clipPath><g clip-path="url(#t16)"><rect class="rest" x="822.8" y="201.1" width="29.2" height="54.1"/>
<rect x="822.8" y="201.1" width="29.2" height="54.1" fill="#196c2e"/>
<rect x="822.8" y="201.1" width="29.1" height="54.1" fill="#2ea043"/>
<rect x="822.8" y="201.1" width="16.4" height="54.1" fill="url(#dots)"/>
<text x="826.8" y="211.5" font-size="7.0" fill="#ffffff" style="paint-order:stroke" stroke="#0008" stroke-width="2">System</text>
</g><rect class="edge" x="822.8" y="201.1" width="29.2" height="54.1" fill="none"/></g>
    <g><title>Code/GameEngine/Source/GameClient
49,376 bytes
byte-matched 100.0% (own source 99.8%)
linked (last census) 36.1%</title><clipPath id="t17"><rect x="791.0" y="255.2" width="29.9" height="43.5"/></clipPath><g clip-path="url(#t17)"><rect class="rest" x="791.0" y="255.2" width="29.9" height="43.5"/>
<rect x="791.0" y="255.2" width="29.9" height="43.5" fill="#196c2e"/>
<rect x="791.0" y="255.2" width="29.8" height="43.5" fill="#2ea043"/>
<rect x="791.0" y="255.2" width="10.8" height="43.5" fill="url(#dots)"/>
<text x="795.0" y="265.6" font-size="7.0" fill="#ffffff" style="paint-order:stroke" stroke="#0008" stroke-width="2">GameClient</text>
</g><rect class="edge" x="791.0" y="255.2" width="29.9" height="43.5" fill="none"/></g>
    <g><title>Code/GameEngine/Source/GameClient/GUI
44,980 bytes
byte-matched 100.0% (own source 99.9%)
linked (last census) 57.3%</title><clipPath id="t18"><rect x="820.8" y="255.2" width="31.2" height="38.0"/></clipPath><g clip-path="url(#t18)"><rect class="rest" x="820.8" y="255.2" width="31.2" height="38.0"/>
<rect x="820.8" y="255.2" width="31.2" height="38.0" fill="#196c2e"/>
<rect x="820.8" y="255.2" width="31.1" height="38.0" fill="#2ea043"/>
<rect x="820.8" y="255.2" width="17.9" height="38.0" fill="url(#dots)"/>
<text x="824.8" y="267.7" font-size="9.0" fill="#ffffff" style="paint-order:stroke" stroke="#0008" stroke-width="2">GUI</text>
</g><rect class="edge" x="820.8" y="255.2" width="31.2" height="38.0" fill="none"/></g>
    <g><title>Device &amp; graphics: 5 smaller folders
3,567 bytes
byte-matched 100.0% (own source 100.0%)
linked (last census) 36.4%</title><clipPath id="t19"><rect x="820.8" y="293.2" width="17.0" height="5.5"/></clipPath><g clip-path="url(#t19)"><rect class="rest" x="820.8" y="293.2" width="17.0" height="5.5"/>
<rect x="820.8" y="293.2" width="17.0" height="5.5" fill="#196c2e"/>
<rect x="820.8" y="293.2" width="17.0" height="5.5" fill="#2ea043"/>
<rect x="820.8" y="293.2" width="6.2" height="5.5" fill="url(#dots)"/>
<text x="824.8" y="305.6" font-size="9.0" fill="#ffffff" style="paint-order:stroke" stroke="#0008" stroke-width="2">Devic…</text>
</g><rect class="edge" x="820.8" y="293.2" width="17.0" height="5.5" fill="none"/></g>
    <g><title>dumps
2,953 bytes
byte-matched 0.0% (own source 0.0%)
linked (last census) 0.0%</title><clipPath id="t20"><rect x="837.9" y="293.2" width="14.1" height="5.5"/></clipPath><g clip-path="url(#t20)"><rect class="rest" x="837.9" y="293.2" width="14.1" height="5.5"/>
<text x="841.9" y="303.5" font-size="7.0" fill="#ffffff" style="paint-order:stroke" stroke="#0008" stroke-width="2">Dumps</text>
</g><rect class="edge" x="837.9" y="293.2" width="14.1" height="5.5" fill="none"/></g>
  </g>
</svg>
